<svg width="40" height="40" viewBox="0 0 40 40" fill="none" xmlns="http://www.w3.org/2000/svg">
<path d="M32.8105 5.60059H7.1897C6.76811 5.60059 6.36379 5.76806 6.06568 6.06617C5.76757 6.36428 5.6001 6.7686 5.6001 7.19019V32.8114C5.6002 33.2329 5.76773 33.6371 6.06582 33.9351C6.36392 34.2332 6.76818 34.4006 7.1897 34.4006H20.9829V23.2478H17.2297V18.9014H20.9829V15.6958C20.9829 11.9758 23.2549 9.95059 26.5733 9.95059C28.1629 9.95059 29.5289 10.0686 29.9273 10.1218V14.0094L27.6257 14.0106C25.8209 14.0106 25.4717 14.8682 25.4717 16.1266V18.9018H29.7757L29.2153 23.2482H25.4717V34.4006H32.8109C33.2324 34.4005 33.6366 34.233 33.9347 33.9349C34.2327 33.6368 34.4001 33.2325 34.4001 32.811V7.19019C34.4001 6.7686 34.2326 6.36428 33.9345 6.06617C33.6364 5.76806 33.2321 5.60059 32.8105 5.60059Z" fill="#0870D8"/>
</svg>
