<svg width="43" height="32" viewBox="0 0 43 32" fill="none" xmlns="http://www.w3.org/2000/svg">
<path d="M40.4934 6.63134C40.2611 5.82617 39.8183 5.0928 39.208 4.50223C38.5977 3.91167 37.8404 3.48393 37.0096 3.26043C33.8909 2.45194 21.3534 2.45194 21.3534 2.45194C21.3534 2.45194 8.83961 2.43255 5.68836 3.26043C4.85886 3.48491 4.1031 3.9131 3.49414 4.50361C2.88518 5.09412 2.44361 5.82697 2.21211 6.63134C1.61986 9.72736 1.32817 12.8704 1.34086 16.0192C1.33508 19.1529 1.62673 22.2804 2.21211 25.3623C2.44436 26.167 2.88606 26.9004 3.49481 27.492C4.10356 28.0836 4.85891 28.5135 5.68836 28.7404C8.80711 29.5489 21.3534 29.5489 21.3534 29.5489C21.3534 29.5489 33.8596 29.5489 37.0096 28.7404C37.8404 28.5145 38.5972 28.085 39.2073 27.4934C39.8175 26.9018 40.2603 26.1679 40.4934 25.3623C41.0671 22.2823 41.3471 19.1501 41.3271 16.0192C41.3471 12.8677 41.0733 9.73073 40.4934 6.63134ZM17.3484 21.8216V10.1913L27.7846 16.0192L17.3484 21.8216Z" fill="white"/>
</svg>
