<svg width="40" height="40" viewBox="0 0 40 40" fill="none" xmlns="http://www.w3.org/2000/svg">
<path d="M19.9982 12.2949C17.9542 12.2949 15.994 13.1069 14.5487 14.5522C13.1035 15.9974 12.2915 17.9577 12.2915 20.0016C12.2915 22.0455 13.1035 24.0057 14.5487 25.451C15.994 26.8963 17.9542 27.7083 19.9982 27.7083C22.0421 27.7083 24.0023 26.8963 25.4476 25.451C26.8929 24.0057 27.7048 22.0455 27.7048 20.0016C27.7048 17.9577 26.8929 15.9974 25.4476 14.5522C24.0023 13.1069 22.0421 12.2949 19.9982 12.2949ZM19.9982 25.0066C18.6703 25.0066 17.3969 24.4791 16.4579 23.5402C15.519 22.6012 14.9915 21.3278 14.9915 19.9999C14.9915 18.6721 15.519 17.3986 16.4579 16.4597C17.3969 15.5207 18.6703 14.9933 19.9982 14.9933C21.326 14.9933 22.5995 15.5207 23.5384 16.4597C24.4774 17.3986 25.0048 18.6721 25.0048 19.9999C25.0048 21.3278 24.4774 22.6012 23.5384 23.5402C22.5995 24.4791 21.326 25.0066 19.9982 25.0066Z" fill="#0D1623"/>
<path d="M28.0076 13.8082C28.9999 13.8082 29.8043 13.0038 29.8043 12.0115C29.8043 11.0192 28.9999 10.2148 28.0076 10.2148C27.0153 10.2148 26.2109 11.0192 26.2109 12.0115C26.2109 13.0038 27.0153 13.8082 28.0076 13.8082Z" fill="#0D1623"/>
<path d="M34.2247 10.1864C33.8388 9.19007 33.2492 8.28524 32.4936 7.52986C31.7379 6.77449 30.8329 6.18522 29.8363 5.79977C28.6702 5.36203 27.4383 5.12533 26.193 5.09977C24.588 5.02977 24.0797 5.00977 20.0097 5.00977C15.9397 5.00977 15.418 5.00977 13.8263 5.09977C12.582 5.12403 11.3509 5.36077 10.1863 5.79977C9.18957 6.18477 8.28429 6.77388 7.52857 7.52931C6.77285 8.28474 6.18339 9.18981 5.79801 10.1864C5.36019 11.3525 5.12404 12.5845 5.09968 13.8298C5.02801 15.4331 5.00635 15.9414 5.00635 20.0131C5.00635 24.0831 5.00635 24.6014 5.09968 26.1964C5.12468 27.4431 5.35968 28.6731 5.79801 29.8414C6.18448 30.8377 6.77451 31.7424 7.53041 32.4977C8.28631 33.253 9.19145 33.8424 10.188 34.2281C11.3504 34.6834 12.582 34.9371 13.8297 34.9781C15.4347 35.0481 15.943 35.0698 20.013 35.0698C24.083 35.0698 24.6047 35.0698 26.1963 34.9781C27.4415 34.9528 28.6734 34.7167 29.8397 34.2798C30.8359 33.8934 31.7407 33.3036 32.4963 32.5481C33.2519 31.7925 33.8417 30.8877 34.228 29.8914C34.6663 28.7248 34.9013 27.4948 34.9263 26.2481C34.998 24.6448 35.0197 24.1364 35.0197 20.0648C35.0197 15.9931 35.0197 15.4764 34.9263 13.8814C34.9069 12.6186 34.6696 11.3685 34.2247 10.1864ZM32.1947 26.0731C32.1839 27.0336 32.0086 27.9852 31.6763 28.8864C31.4261 29.5345 31.0429 30.1231 30.5515 30.6142C30.06 31.1054 29.4713 31.4882 28.823 31.7381C27.9317 32.0688 26.9903 32.2442 26.0397 32.2564C24.4563 32.3298 24.0097 32.3481 19.9497 32.3481C15.8863 32.3481 15.4713 32.3481 13.858 32.2564C12.9079 32.2448 11.9669 32.0695 11.0763 31.7381C10.4258 31.4897 9.83468 31.1076 9.34116 30.6164C8.84764 30.1251 8.46274 29.5358 8.21135 28.8864C7.88376 27.9948 7.70853 27.0545 7.69301 26.1048C7.62135 24.5214 7.60468 24.0748 7.60468 20.0148C7.60468 15.9531 7.60468 15.5381 7.69301 13.9231C7.70379 12.9631 7.87911 12.0121 8.21135 11.1114C8.71968 9.79643 9.76135 8.76143 11.0763 8.2581C11.9673 7.92833 12.9081 7.75304 13.858 7.73977C15.443 7.6681 15.888 7.6481 19.9497 7.6481C24.0113 7.6481 24.428 7.6481 26.0397 7.73977C26.9904 7.7512 27.9319 7.92655 28.823 8.2581C29.4712 8.50855 30.0599 8.89177 30.5513 9.38315C31.0427 9.87453 31.4259 10.4632 31.6763 11.1114C32.0039 12.003 32.1792 12.9434 32.1947 13.8931C32.2663 15.4781 32.2847 15.9231 32.2847 19.9848C32.2847 24.0448 32.2847 24.4814 32.213 26.0748H32.1947V26.0731Z" fill="#0D1623"/>
</svg>
