<svg width="40" height="40" viewBox="0 0 40 40" fill="none" xmlns="http://www.w3.org/2000/svg">
<path d="M13.3335 31.6667H8.3335V15H13.3335V31.6667ZM31.6668 31.6667H26.6668V22.7633C26.6668 20.4433 25.8402 19.2883 24.2018 19.2883C22.9035 19.2883 22.0802 19.935 21.6668 21.23V31.6667H16.6668C16.6668 31.6667 16.7335 16.6667 16.6668 15H20.6135L20.9185 18.3333H21.0218C22.0468 16.6667 23.6852 15.5367 25.9318 15.5367C27.6402 15.5367 29.0218 16.0117 30.0768 17.205C31.1385 18.4 31.6668 20.0033 31.6668 22.255V31.6667Z" fill="#0870D8"/>
<path d="M10.8333 13.333C12.2601 13.333 13.4167 12.2137 13.4167 10.833C13.4167 9.4523 12.2601 8.33301 10.8333 8.33301C9.4066 8.33301 8.25 9.4523 8.25 10.833C8.25 12.2137 9.4066 13.333 10.8333 13.333Z" fill="#0870D8"/>
</svg>
