<svg width="40" height="40" viewBox="0 0 40 40" fill="none" xmlns="http://www.w3.org/2000/svg">
<path d="M25.8333 23.3333H24.5167L24.05 22.8833C25.7398 20.9234 26.6685 18.4212 26.6667 15.8333C26.6667 12.9602 25.5253 10.2047 23.4937 8.17301C21.462 6.14137 18.7065 5 15.8333 5C12.9602 5 10.2047 6.14137 8.17301 8.17301C6.14137 10.2047 5 12.9602 5 15.8333C5 18.7065 6.14137 21.462 8.17301 23.4937C10.2047 25.5253 12.9602 26.6667 15.8333 26.6667C18.5167 26.6667 20.9833 25.6833 22.8833 24.05L23.3333 24.5167V25.8333L31.6667 34.1667L34.1667 31.6667L25.8333 23.3333ZM15.8333 23.3333C11.6667 23.3333 8.33333 20 8.33333 15.8333C8.33333 11.6667 11.6667 8.33333 15.8333 8.33333C20 8.33333 23.3333 11.6667 23.3333 15.8333C23.3333 20 20 23.3333 15.8333 23.3333Z" fill="#0D1623"/>
</svg>
