<svg width="16" height="16" viewBox="0 0 16 16" fill="none" xmlns="http://www.w3.org/2000/svg">
<path d="M6.18364 3.59017C6.75535 1.83062 9.24465 1.83062 9.81636 3.59017C10.072 4.37706 10.8053 4.90983 11.6327 4.90983C13.4828 4.90983 14.252 7.27729 12.7553 8.36475C12.0859 8.85107 11.8058 9.71311 12.0615 10.5C12.6332 12.2595 10.6193 13.7227 9.12257 12.6353C8.4532 12.1489 7.5468 12.1489 6.87743 12.6353C5.38067 13.7227 3.36679 12.2595 3.9385 10.5C4.19418 9.71311 3.91409 8.85107 3.24472 8.36475C1.74796 7.27729 2.51719 4.90983 4.36729 4.90983C5.19468 4.90983 5.92797 4.37706 6.18364 3.59017Z" fill="#0D1623"/>
</svg>
