<svg width="185" height="36" viewBox="0 0 185 36" fill="none" xmlns="http://www.w3.org/2000/svg">
<g clip-path="url(#clip0)">
<path d="M0.245216 0.0585672C12.3811 0.0400722 24.5077 0.0215775 36.6038 0C36.6405 0.0339074 36.6497 0.0400726 36.6558 0.0493201C36.6619 0.0554851 36.6742 0.0647322 36.6742 0.0739797C36.6833 0.1233 36.6956 0.175703 36.6956 0.225023C36.6956 12.0803 36.6956 23.9356 36.6925 35.7908C36.6925 35.8309 36.6772 35.871 36.6711 35.9049C36.4295 35.9758 0.746798 36.0374 0.260508 35.9727C0.196281 35.76 0.171814 0.570261 0.245216 0.0585672ZM29.6765 9.75609C29.6398 9.74684 29.6 9.73143 29.5633 9.73143C28.655 9.72835 27.7497 9.73451 26.8413 9.72527C26.6486 9.72218 26.6028 9.83932 26.5569 9.98111C26.3336 10.6531 26.1042 11.322 25.881 11.994C24.835 15.1289 23.789 18.2607 22.743 21.3956C22.7247 21.4542 22.6849 21.5066 22.639 21.5959C22.5932 21.4726 22.5626 21.3987 22.5381 21.3216C21.8805 19.3334 21.223 17.3483 20.5624 15.3601C20.2382 14.386 19.9262 13.4088 19.5898 12.4409C19.0393 10.8658 17.5743 9.70677 15.7851 9.72218C13.6534 9.74376 11.5247 9.72527 9.39297 9.72835C9.27369 9.72835 9.15748 9.74068 9.04738 9.74684C8.97703 10.089 8.98927 26.0132 9.06267 26.2844C9.19112 26.2844 9.33181 26.2844 9.47249 26.2844C12.8582 26.2844 16.2408 26.2844 19.6265 26.2844C19.7091 26.2844 19.7916 26.2906 19.8712 26.2813C19.9354 26.2752 19.9996 26.2505 20.0791 26.232C19.9874 25.9453 19.9017 25.6803 19.8161 25.4182C19.5928 24.7247 19.3696 24.0311 19.1402 23.3406C19.0607 23.094 19.0546 23.0971 18.7946 23.091C18.7334 23.091 18.6723 23.091 18.6111 23.091C16.5099 23.094 14.4119 23.094 12.3107 23.0971C12.1945 23.0971 12.0752 23.0879 11.9651 23.0848C11.907 22.5978 11.9254 13.2054 11.9865 12.9588C12.0691 12.9526 12.1578 12.9372 12.2465 12.9372C13.4301 12.9372 14.6107 12.9341 15.7943 12.9372C16.3509 12.9403 16.6537 13.1653 16.8341 13.7109C17.2807 15.0426 17.7272 16.3773 18.1737 17.7089C19.0943 20.4616 20.0149 23.2173 20.9355 25.97C21.0395 26.2813 21.0425 26.2813 21.3606 26.2813C22.2078 26.2813 23.0519 26.2813 23.8991 26.2813C24 26.2813 24.0979 26.2813 24.1805 26.2813C24.416 25.7974 29.6704 10.0027 29.6765 9.75609Z" fill="white"/>
<path d="M76.9965 26.2875C76.8864 26.2936 76.7946 26.306 76.7059 26.306C76.0545 26.306 75.4 26.2967 74.7485 26.3121C74.5375 26.3183 74.4182 26.2351 74.299 26.0686C73.0297 24.2808 71.7543 22.4991 70.479 20.7143C69.3351 19.1145 68.1913 17.5147 67.0474 15.9149C67.0015 15.8502 66.9495 15.7885 66.8761 15.696C66.8456 15.7793 66.818 15.8286 66.815 15.881C66.8058 15.9827 66.8119 16.0875 66.8119 16.1892C66.8119 19.4166 66.8119 22.6409 66.8119 25.8683C66.8119 26.0008 66.8119 26.1303 66.8119 26.2844C65.8057 26.2844 64.8331 26.2844 63.8636 26.2844C63.8055 26.047 63.7902 10.0859 63.8514 9.71292C63.9431 9.70675 64.041 9.69442 64.1389 9.69442C64.8117 9.69134 65.4846 9.70058 66.1574 9.68825C66.3532 9.68517 66.4724 9.7499 66.5856 9.91019C67.9527 11.8398 69.329 13.7664 70.7022 15.696C71.736 17.1479 72.7697 18.5997 73.8065 20.0516C73.8524 20.1163 73.9075 20.178 73.9533 20.2365C73.9778 20.2273 73.987 20.2242 73.9962 20.2211C74.0023 20.215 74.0145 20.2088 74.0145 20.2026C74.0145 16.7225 74.0145 13.2393 74.0145 9.77148C74.2592 9.68209 76.6845 9.66668 76.9995 9.74682C76.9965 15.2398 76.9965 20.7452 76.9965 26.2875Z" fill="white"/>
<path d="M80.3852 26.2906C80.3852 20.7544 80.3852 15.2491 80.3852 9.74992C80.6177 9.67286 91.053 9.66361 91.3619 9.73759C91.3619 10.7147 91.3619 11.6981 91.3619 12.7276C90.9919 12.7492 90.6187 12.7338 90.2456 12.7369C89.8694 12.7399 89.4902 12.7369 89.114 12.7369C88.7378 12.7369 88.3586 12.7369 87.9824 12.7369C87.6153 12.7369 87.2483 12.7369 86.8813 12.7369C86.5051 12.7369 86.1259 12.7369 85.7497 12.7369C85.3735 12.7369 84.9943 12.7369 84.6181 12.7369C84.2419 12.7369 83.8657 12.7369 83.4956 12.7369C83.4161 12.965 83.3886 15.3662 83.4589 15.955C83.8749 15.9796 84.297 15.9642 84.7221 15.9673C85.1411 15.9704 85.557 15.9673 85.976 15.9673C86.4042 15.9673 86.8324 15.9673 87.2606 15.9673C87.6796 15.9673 88.0955 15.9673 88.5145 15.9673C88.9397 15.9673 89.3648 15.9673 89.8113 15.9673C89.8113 16.9722 89.8113 17.9432 89.8113 18.9481C89.1017 18.982 88.4044 18.9573 87.7071 18.9635C87.0037 18.9666 86.3002 18.9635 85.5968 18.9635C84.8933 18.9635 84.193 18.9635 83.4987 18.9635C83.4192 19.2008 83.4008 22.8382 83.4773 23.2574C86.1718 23.2636 88.8754 23.2543 91.5913 23.2605C91.5913 24.2962 91.5913 25.2857 91.5913 26.2906C87.8508 26.2906 84.1349 26.2906 80.3852 26.2906Z" fill="white"/>
<path d="M108.333 9.73143C106.235 15.2583 104.146 20.7668 102.051 26.2875C101.085 26.2875 100.13 26.2875 99.1395 26.2875C97.0537 20.7883 94.9617 15.2768 92.8697 9.76533C93.0746 9.67286 95.4021 9.63895 96.2309 9.71293C97.6806 13.6308 99.1181 17.5733 100.574 21.5065C100.598 21.5035 100.623 21.5004 100.647 21.5004C100.681 21.4326 100.721 21.3648 100.745 21.2939C101.883 18.2052 103.024 15.1165 104.165 12.0279C104.424 11.3251 104.687 10.6253 104.944 9.91946C104.993 9.78691 105.039 9.68519 105.214 9.68827C106.201 9.69444 107.189 9.69135 108.18 9.69444C108.217 9.69444 108.254 9.70985 108.333 9.73143Z" fill="white"/>
<path d="M47.342 23.2574C48.6448 23.2574 49.9049 23.2574 51.165 23.2574C52.4159 23.2574 53.6668 23.2574 54.9085 23.2574C54.9819 23.5348 54.988 25.97 54.9238 26.2844C51.3974 26.2844 47.8649 26.2844 44.3355 26.2844C44.2682 26.0563 44.2438 10.1784 44.308 9.74374C44.5313 9.66976 47.0269 9.66359 47.342 9.74065C47.342 11.9785 47.342 14.2257 47.342 16.4759C47.342 18.7261 47.342 20.9702 47.342 23.2574Z" fill="white"/>
<path d="M126.619 16.2848C126.619 16.4204 126.619 16.5407 126.619 16.6639C126.619 18.9049 126.613 21.1428 126.626 23.3838C126.629 23.689 126.531 23.9078 126.338 24.1236C125.445 25.1254 124.359 25.8344 123.099 26.2598C121.292 26.8701 119.469 26.9009 117.667 26.2659C115.536 25.5138 114.031 24.0404 113.092 21.9843C111.93 19.4413 112.037 16.0382 113.383 13.6184C114.53 11.5563 116.23 10.1661 118.551 9.66361C120.457 9.25364 122.329 9.41701 124.099 10.277C124.564 10.502 124.983 10.8226 125.424 11.1031C125.534 11.174 125.592 11.2634 125.589 11.4052C125.583 12.4533 125.586 13.5013 125.586 14.5494C125.586 14.5863 125.574 14.6233 125.558 14.7096C125.396 14.5863 125.258 14.4846 125.127 14.3798C124.5 13.8866 123.867 13.4027 123.13 13.079C121.806 12.4964 120.432 12.333 119.038 12.7153C117.386 13.1684 116.276 14.2781 115.698 15.8779C115.132 17.45 115.141 19.059 115.796 20.6034C116.478 22.2063 117.68 23.2451 119.408 23.5687C120.512 23.7753 121.601 23.6735 122.64 23.205C122.769 23.1464 122.897 23.0786 123.02 23.0046C123.68 22.6132 123.677 22.6132 123.677 21.8456C123.677 20.1194 123.677 18.3932 123.677 16.667C123.677 16.5468 123.677 16.4235 123.677 16.3125C123.928 16.2416 126.161 16.2232 126.619 16.2848ZM124.891 13.341C124.913 13.3256 124.937 13.3102 124.959 13.2948C124.959 12.7708 124.956 12.2498 124.959 11.7258C124.959 11.5963 124.891 11.5131 124.791 11.4515C124.494 11.2696 124.206 11.0692 123.901 10.9151C122.696 10.3078 121.411 10.1013 120.074 10.1476C117.765 10.2246 115.921 11.211 114.517 13.0451C113.661 14.161 113.187 15.4371 113.028 16.8335C112.872 18.2052 112.924 19.5677 113.361 20.8839C114.092 23.0786 115.502 24.6692 117.649 25.5323C119.224 26.1642 120.854 26.1827 122.484 25.7388C123.772 25.3874 124.885 24.7339 125.797 23.7414C125.922 23.6057 125.986 23.467 125.986 23.2759C125.98 21.263 125.983 19.2471 125.983 17.2342C125.983 17.1448 125.968 17.0554 125.959 16.9784C125.622 16.9013 124.561 16.9105 124.307 16.9999C124.307 17.1109 124.307 17.2311 124.307 17.3513C124.307 19.0683 124.304 20.7822 124.31 22.4991C124.31 22.7241 124.258 22.8875 124.084 23.0324C123.748 23.3191 123.396 23.578 122.998 23.7722C122.365 24.0835 121.695 24.2438 121.001 24.3055C120.087 24.3856 119.184 24.3178 118.328 23.9633C116.615 23.2543 115.508 21.9782 114.967 20.2057C114.63 19.1084 114.603 17.9771 114.78 16.8489C115.059 15.0826 115.927 13.677 117.417 12.6968C118.683 11.8614 120.096 11.7073 121.561 11.9138C122.662 12.068 123.659 12.4903 124.57 13.1252C124.674 13.1992 124.784 13.2701 124.891 13.341Z" fill="white"/>
<path d="M57.3583 9.74066C57.5999 9.67593 60.065 9.66976 60.3556 9.73758C60.3556 15.2429 60.3556 20.7513 60.3556 26.2844C59.3585 26.2844 58.3737 26.2844 57.3889 26.2844C57.3858 26.2813 57.3767 26.2752 57.3705 26.2659C57.3644 26.2597 57.3522 26.2505 57.3522 26.2412C57.3461 26.1919 57.3338 26.1395 57.3338 26.0902C57.3338 20.6681 57.3369 15.246 57.3369 9.82389C57.3369 9.79615 57.3522 9.76532 57.3583 9.74066Z" fill="white"/>
<path d="M150.295 14.4538C151.264 14.4538 152.215 14.4538 153.2 14.4538C153.206 14.5894 153.219 14.7097 153.219 14.8268C153.219 16.9321 153.216 19.0375 153.225 21.1459C153.228 21.5127 153.265 21.8857 153.332 22.2464C153.503 23.1711 154.106 23.5626 154.983 23.6612C155.568 23.729 156.118 23.5934 156.626 23.2913C157.051 23.0386 157.436 22.7426 157.754 22.3573C157.898 22.1847 157.965 22.0028 157.965 21.7717C157.956 19.4721 157.959 17.1695 157.959 14.8669C157.959 14.7436 157.959 14.6203 157.959 14.5062C158.176 14.4199 160.36 14.3891 160.856 14.46C160.862 14.4661 160.871 14.4754 160.877 14.4816C160.883 14.4908 160.892 14.497 160.892 14.5062C160.898 14.5679 160.911 14.6295 160.911 14.6881C160.911 18.5597 160.908 22.4344 160.908 26.306C160.908 26.3337 160.892 26.3646 160.877 26.4139C159.92 26.4139 158.956 26.4139 157.971 26.4139C157.962 26.2043 157.953 26.0008 157.941 25.745C157.819 25.8159 157.73 25.8683 157.638 25.9238C156.335 26.6851 154.937 26.8948 153.479 26.568C152.072 26.2505 151.163 25.3381 150.656 23.9972C150.387 23.2882 150.27 22.5484 150.267 21.7932C150.258 19.432 150.261 17.0678 150.261 14.7066C150.267 14.6295 150.283 14.5494 150.295 14.4538ZM158.598 15.1443C158.598 15.32 158.598 15.4525 158.598 15.5851C158.598 17.712 158.595 19.8389 158.601 21.9628C158.601 22.1785 158.562 22.3727 158.421 22.533C158.179 22.8105 157.956 23.1095 157.681 23.3468C156.889 24.0342 155.99 24.4503 154.91 24.3332C153.803 24.213 152.962 23.6273 152.711 22.4406C152.625 22.0306 152.579 21.6083 152.576 21.1891C152.561 19.2995 152.57 17.4099 152.57 15.5204C152.57 15.4001 152.57 15.2799 152.57 15.1474C151.998 15.1474 151.466 15.1474 150.919 15.1474C150.91 15.2491 150.9 15.3292 150.9 15.4094C150.9 17.5363 150.897 19.6632 150.903 21.7871C150.906 22.345 150.983 22.8937 151.142 23.4269C151.561 24.8295 152.445 25.7481 153.913 25.9608C155.629 26.2074 157.149 25.782 158.363 24.4657C158.418 24.4041 158.488 24.3548 158.586 24.2716C158.62 24.7987 158.571 25.2672 158.617 25.7203C159.024 25.7974 160.048 25.7789 160.253 25.6987C160.317 25.1346 160.287 15.3631 160.219 15.1443C159.696 15.1443 159.17 15.1443 158.598 15.1443Z" fill="white"/>
<path d="M166.44 25.8159C166.422 26.2474 166.434 26.6543 166.431 27.0581C166.428 27.4804 166.431 27.8996 166.431 28.3219C166.431 28.7319 166.431 29.1449 166.431 29.5549C166.431 29.9618 166.431 30.3718 166.431 30.8002C165.44 30.8002 164.486 30.8002 163.538 30.8002C163.526 30.791 163.516 30.7848 163.51 30.7787C163.504 30.7725 163.495 30.7633 163.495 30.754C163.489 30.7139 163.477 30.6739 163.477 30.6338C163.477 25.2918 163.477 19.953 163.477 14.611C163.477 14.5709 163.489 14.5308 163.495 14.4969C163.718 14.423 166.043 14.4045 166.413 14.4784C166.425 14.6665 166.44 14.8607 166.456 15.098C166.575 15.0364 166.654 14.9994 166.728 14.9501C168.495 13.8003 171.716 13.6955 173.661 16.0628C174.625 17.2373 175.135 18.5782 175.193 20.0978C175.249 21.5189 174.97 22.8567 174.206 24.0681C173.407 25.3319 172.328 26.232 170.854 26.5618C169.395 26.8886 167.997 26.7159 166.7 25.9237C166.657 25.896 166.615 25.8683 166.569 25.8467C166.55 25.8374 166.529 25.8374 166.44 25.8159ZM164.134 30.1036C164.526 30.1745 165.559 30.1591 165.789 30.0759C165.789 29.1203 165.789 28.1555 165.789 27.1906C165.789 26.2197 165.789 25.2487 165.789 24.2777C165.81 24.2684 165.832 24.2592 165.853 24.2499C165.923 24.3301 165.991 24.4102 166.061 24.4935C166.56 25.0853 167.174 25.5107 167.905 25.7665C168.593 26.0039 169.297 26.0655 170.016 26.0101C171.196 25.9176 172.193 25.4336 173.001 24.5644C174.114 23.3684 174.579 21.9319 174.554 20.3136C174.533 18.8864 174.089 17.6226 173.184 16.5129C171.325 14.2318 167.63 14.3521 165.978 16.4944C165.939 16.5468 165.884 16.5869 165.783 16.6824C165.783 16.1307 165.783 15.6436 165.783 15.1658C165.397 15.0919 164.361 15.1104 164.137 15.1874C164.134 20.1533 164.134 25.1192 164.134 30.1036Z" fill="white"/>
<path d="M142.64 26.716C139.012 26.719 136.972 24.0034 136.608 21.5805C136.26 19.244 136.896 17.2342 138.645 15.619C139.312 15.0025 140.092 14.5925 140.97 14.3737C142.355 14.0284 143.734 14.0716 145.04 14.6573C146.94 15.5111 148.084 17.0246 148.506 19.0621C148.827 20.6157 148.671 22.1385 147.9 23.5441C146.952 25.2764 145.514 26.343 143.551 26.642C143.34 26.6728 143.126 26.6821 142.912 26.7006C142.799 26.7098 142.688 26.7129 142.64 26.716ZM148.016 20.3013C147.992 20.0732 147.983 19.6786 147.903 19.2964C147.524 17.4469 146.518 16.0752 144.802 15.283C143.952 14.8915 143.037 14.7898 142.11 14.8607C140.872 14.9563 139.78 15.4063 138.878 16.2941C137.477 17.675 136.975 19.3673 137.211 21.2939C137.508 23.7167 139.514 26.0378 142.526 26.0286C143.621 26.0255 144.658 25.8066 145.57 25.1747C147.206 24.0434 147.983 22.4467 148.016 20.3013Z" fill="white"/>
<path d="M132.039 26.4262C131.039 26.4262 130.085 26.4262 129.134 26.4262C129.072 26.1919 129.057 14.8237 129.115 14.4815C129.36 14.4168 131.724 14.4137 132.036 14.4877C132.036 14.7281 132.036 14.9778 132.036 15.3046C132.66 14.8823 133.253 14.5555 133.914 14.3675C134.578 14.1764 135.25 14.1455 135.954 14.1887C135.954 15.2244 135.954 16.2355 135.954 17.2866C135.743 17.2959 135.541 17.3051 135.342 17.3113C134.59 17.3267 133.896 17.5363 133.256 17.9309C132.831 18.1898 132.486 18.5319 132.21 18.9512C132.088 19.1392 132.036 19.3334 132.036 19.5584C132.042 21.7162 132.039 23.8708 132.039 26.0286C132.039 26.1519 132.039 26.2813 132.039 26.4262ZM129.724 15.1474C129.724 15.2892 129.724 15.4094 129.724 15.5296C129.724 17.0184 129.724 18.5073 129.724 19.9961C129.724 21.784 129.724 23.5687 129.724 25.3566C129.724 25.483 129.742 25.6124 129.751 25.7573C130.311 25.7635 130.834 25.7912 131.397 25.7388C131.397 25.5816 131.397 25.4491 131.397 25.3196C131.397 23.3684 131.403 21.4172 131.391 19.4659C131.388 19.1731 131.464 18.9265 131.611 18.683C132.293 17.5579 133.324 16.9599 134.578 16.7102C134.813 16.6639 135.055 16.6424 135.315 16.6054C135.33 16.0166 135.348 15.4494 135.302 14.8638C134.889 14.8299 134.516 14.8915 134.159 15.0056C133.801 15.1196 133.44 15.246 133.113 15.4279C132.776 15.6128 132.458 15.8471 132.171 16.106C131.898 16.3526 131.678 16.6547 131.394 16.9784C131.394 16.6239 131.4 16.328 131.394 16.032C131.388 15.7392 131.424 15.4433 131.369 15.1535C130.813 15.1474 130.287 15.1474 129.724 15.1474Z" fill="white"/>
<path d="M165.789 20.4492C165.789 19.956 165.78 19.4629 165.795 18.9727C165.798 18.8155 165.832 18.6429 165.902 18.5042C166.703 16.9229 168.603 15.9087 170.603 16.7163C171.505 17.0801 172.144 17.7613 172.511 18.6552C173.046 19.956 173.031 21.2723 172.358 22.5176C171.664 23.8061 170.56 24.4842 169.086 24.438C167.624 24.3918 166.569 23.6581 165.887 22.3696C165.822 22.2494 165.795 22.0984 165.792 21.9597C165.783 21.4541 165.789 20.9517 165.789 20.4492ZM166.431 20.4308C166.431 20.8716 166.437 21.3154 166.428 21.7562C166.422 21.972 166.48 22.1569 166.602 22.3327C167.223 23.2358 168.052 23.7475 169.165 23.7568C170.23 23.766 171.074 23.3375 171.646 22.4405C172.423 21.223 172.447 19.9376 171.796 18.6614C171.416 17.9216 170.805 17.4161 169.982 17.2095C168.648 16.8736 167.3 17.4284 166.569 18.609C166.474 18.7631 166.425 18.9203 166.428 19.1022C166.437 19.5461 166.431 19.99 166.431 20.4308Z" fill="white"/>
<path d="M138.856 20.4554C138.847 19.3025 139.208 18.3162 140 17.5055C140.633 16.855 141.404 16.5098 142.306 16.4451C144.566 16.2817 146.031 18.0017 146.264 19.7618C146.414 20.9147 146.227 21.9905 145.536 22.9522C144.157 24.8695 141.477 24.8202 140.11 23.4978C139.245 22.6594 138.838 21.636 138.856 20.4554ZM142.585 23.7568C143.686 23.7568 144.551 23.3221 145.132 22.382C145.857 21.2075 145.891 19.9499 145.264 18.7385C144.15 16.59 141.34 16.6793 140.171 18.3007C139.431 19.3303 139.303 20.4554 139.676 21.6391C140.092 22.9584 141.217 23.7568 142.585 23.7568Z" fill="white"/>
</g>
<defs>
<clipPath id="clip0">
<rect width="184" height="36" fill="white" transform="translate(0.200195)"/>
</clipPath>
</defs>
</svg>
