<svg width="36" height="36" viewBox="0 0 36 36" fill="none" xmlns="http://www.w3.org/2000/svg">
<g clip-path="url(#clip0)">
<path d="M0.0450208 0.0585672C12.1809 0.0400722 24.3075 0.0215775 36.4036 0C36.4403 0.0339074 36.4495 0.0400726 36.4556 0.0493201C36.4617 0.0554851 36.474 0.0647322 36.474 0.0739797C36.4831 0.1233 36.4954 0.175703 36.4954 0.225023C36.4954 12.0803 36.4954 23.9356 36.4923 35.7908C36.4923 35.8309 36.477 35.871 36.4709 35.9049C36.2293 35.9758 0.546603 36.0374 0.0603129 35.9727C-0.00391407 35.76 -0.0283815 0.570261 0.0450208 0.0585672ZM29.4763 9.75609C29.4396 9.74684 29.3998 9.73143 29.3631 9.73143C28.4548 9.72835 27.5495 9.73451 26.6411 9.72527C26.4484 9.72218 26.4026 9.83932 26.3567 9.98111C26.1334 10.6531 25.904 11.322 25.6808 11.994C24.6348 15.1289 23.5888 18.2607 22.5428 21.3956C22.5245 21.4542 22.4847 21.5066 22.4388 21.5959C22.393 21.4726 22.3624 21.3987 22.3379 21.3216C21.6803 19.3334 21.0228 17.3483 20.3622 15.3601C20.038 14.386 19.726 13.4088 19.3896 12.4409C18.8391 10.8658 17.3741 9.70677 15.5849 9.72218C13.4532 9.74376 11.3245 9.72527 9.19278 9.72835C9.0735 9.72835 8.95728 9.74068 8.84718 9.74684C8.77684 10.089 8.78907 26.0132 8.86247 26.2844C8.99093 26.2844 9.13161 26.2844 9.2723 26.2844C12.658 26.2844 16.0406 26.2844 19.4263 26.2844C19.5089 26.2844 19.5914 26.2906 19.671 26.2813C19.7352 26.2752 19.7994 26.2505 19.8789 26.232C19.7872 25.9453 19.7015 25.6803 19.6159 25.4182C19.3926 24.7247 19.1694 24.0311 18.94 23.3406C18.8605 23.094 18.8544 23.0971 18.5944 23.091C18.5332 23.091 18.4721 23.091 18.4109 23.091C16.3097 23.094 14.2117 23.094 12.1105 23.0971C11.9943 23.0971 11.875 23.0879 11.7649 23.0848C11.7068 22.5978 11.7252 13.2054 11.7863 12.9588C11.8689 12.9526 11.9576 12.9372 12.0463 12.9372C13.2299 12.9372 14.4105 12.9341 15.5941 12.9372C16.1507 12.9403 16.4535 13.1653 16.6339 13.7109C17.0805 15.0426 17.527 16.3773 17.9735 17.7089C18.8941 20.4616 19.8147 23.2173 20.7353 25.97C20.8393 26.2813 20.8423 26.2813 21.1604 26.2813C22.0076 26.2813 22.8517 26.2813 23.6989 26.2813C23.7998 26.2813 23.8977 26.2813 23.9803 26.2813C24.2158 25.7974 29.4702 10.0027 29.4763 9.75609Z" fill="#0D1623"/>
<path d="M76.7963 26.2875C76.6862 26.2936 76.5944 26.306 76.5057 26.306C75.8543 26.306 75.1998 26.2967 74.5483 26.3121C74.3373 26.3183 74.218 26.2351 74.0988 26.0686C72.8295 24.2808 71.5541 22.4991 70.2788 20.7143C69.1349 19.1145 67.9911 17.5147 66.8472 15.9149C66.8013 15.8502 66.7494 15.7885 66.6759 15.696C66.6454 15.7793 66.6178 15.8286 66.6148 15.881C66.6056 15.9827 66.6117 16.0875 66.6117 16.1892C66.6117 19.4166 66.6117 22.6409 66.6117 25.8683C66.6117 26.0008 66.6117 26.1303 66.6117 26.2844C65.6055 26.2844 64.6329 26.2844 63.6634 26.2844C63.6053 26.047 63.59 10.0859 63.6512 9.71292C63.7429 9.70675 63.8408 9.69442 63.9387 9.69442C64.6115 9.69134 65.2844 9.70058 65.9572 9.68825C66.153 9.68517 66.2722 9.7499 66.3854 9.91019C67.7525 11.8398 69.1288 13.7664 70.502 15.696C71.5358 17.1479 72.5695 18.5997 73.6063 20.0516C73.6522 20.1163 73.7073 20.178 73.7532 20.2365C73.7776 20.2273 73.7868 20.2242 73.796 20.2211C73.8021 20.215 73.8143 20.2088 73.8143 20.2026C73.8143 16.7225 73.8143 13.2393 73.8143 9.77148C74.059 9.68209 76.4843 9.66668 76.7993 9.74682C76.7963 15.2398 76.7963 20.7452 76.7963 26.2875Z" fill="#0D1623"/>
<path d="M80.185 26.2906C80.185 20.7544 80.185 15.2491 80.185 9.74992C80.4175 9.67286 90.8528 9.66361 91.1617 9.73759C91.1617 10.7147 91.1617 11.6981 91.1617 12.7276C90.7917 12.7492 90.4185 12.7338 90.0454 12.7369C89.6692 12.7399 89.29 12.7369 88.9138 12.7369C88.5376 12.7369 88.1584 12.7369 87.7822 12.7369C87.4152 12.7369 87.0481 12.7369 86.6811 12.7369C86.3049 12.7369 85.9257 12.7369 85.5495 12.7369C85.1733 12.7369 84.7941 12.7369 84.4179 12.7369C84.0417 12.7369 83.6655 12.7369 83.2954 12.7369C83.2159 12.965 83.1884 15.3662 83.2588 15.955C83.6747 15.9796 84.0968 15.9642 84.5219 15.9673C84.9409 15.9704 85.3568 15.9673 85.7758 15.9673C86.204 15.9673 86.6322 15.9673 87.0604 15.9673C87.4794 15.9673 87.8953 15.9673 88.3143 15.9673C88.7395 15.9673 89.1646 15.9673 89.6111 15.9673C89.6111 16.9722 89.6111 17.9432 89.6111 18.9481C88.9016 18.982 88.2042 18.9573 87.5069 18.9635C86.8035 18.9666 86.1 18.9635 85.3966 18.9635C84.6932 18.9635 83.9928 18.9635 83.2985 18.9635C83.219 19.2008 83.2006 22.8382 83.2771 23.2574C85.9716 23.2636 88.6752 23.2543 91.3911 23.2605C91.3911 24.2962 91.3911 25.2857 91.3911 26.2906C87.6507 26.2906 83.9347 26.2906 80.185 26.2906Z" fill="#0D1623"/>
<path d="M108.133 9.73143C106.035 15.2583 103.946 20.7668 101.851 26.2875C100.884 26.2875 99.9302 26.2875 98.9393 26.2875C96.8535 20.7883 94.7615 15.2768 92.6695 9.76533C92.8744 9.67286 95.2019 9.63895 96.0307 9.71293C97.4804 13.6308 98.9179 17.5733 100.374 21.5065C100.398 21.5035 100.423 21.5004 100.447 21.5004C100.481 21.4326 100.521 21.3648 100.545 21.2939C101.683 18.2052 102.824 15.1165 103.964 12.0279C104.224 11.3251 104.487 10.6253 104.744 9.91946C104.793 9.78691 104.839 9.68519 105.013 9.68827C106.001 9.69444 106.989 9.69135 107.98 9.69444C108.017 9.69444 108.053 9.70985 108.133 9.73143Z" fill="#0D1623"/>
<path d="M47.1418 23.2574C48.4447 23.2574 49.7047 23.2574 50.9648 23.2574C52.2157 23.2574 53.4666 23.2574 54.7083 23.2574C54.7817 23.5348 54.7878 25.97 54.7236 26.2844C51.1972 26.2844 47.6648 26.2844 44.1353 26.2844C44.068 26.0563 44.0436 10.1784 44.1078 9.74374C44.3311 9.66976 46.8267 9.66359 47.1418 9.74065C47.1418 11.9785 47.1418 14.2257 47.1418 16.4759C47.1418 18.7261 47.1418 20.9702 47.1418 23.2574Z" fill="#0D1623"/>
<path d="M126.419 16.2848C126.419 16.4204 126.419 16.5407 126.419 16.6639C126.419 18.9049 126.413 21.1428 126.425 23.3838C126.428 23.689 126.331 23.9078 126.138 24.1236C125.245 25.1254 124.159 25.8344 122.899 26.2598C121.092 26.8701 119.269 26.9009 117.467 26.2659C115.336 25.5138 113.831 24.0404 112.892 21.9843C111.73 19.4413 111.837 16.0382 113.182 13.6184C114.329 11.5563 116.03 10.1661 118.351 9.66361C120.257 9.25364 122.128 9.41701 123.899 10.277C124.364 10.502 124.783 10.8226 125.223 11.1031C125.334 11.174 125.392 11.2634 125.389 11.4052C125.382 12.4533 125.386 13.5013 125.386 14.5494C125.386 14.5863 125.373 14.6233 125.358 14.7096C125.196 14.5863 125.058 14.4846 124.927 14.3798C124.3 13.8866 123.667 13.4027 122.93 13.079C121.605 12.4964 120.232 12.333 118.837 12.7153C117.186 13.1684 116.076 14.2781 115.498 15.8779C114.932 17.45 114.941 19.059 115.596 20.6034C116.278 22.2063 117.479 23.2451 119.208 23.5687C120.312 23.7753 121.4 23.6735 122.44 23.205C122.569 23.1464 122.697 23.0786 122.82 23.0046C123.48 22.6132 123.477 22.6132 123.477 21.8456C123.477 20.1194 123.477 18.3932 123.477 16.667C123.477 16.5468 123.477 16.4235 123.477 16.3125C123.728 16.2416 125.961 16.2232 126.419 16.2848ZM124.691 13.341C124.713 13.3256 124.737 13.3102 124.759 13.2948C124.759 12.7708 124.756 12.2498 124.759 11.7258C124.759 11.5963 124.691 11.5131 124.59 11.4515C124.294 11.2696 124.006 11.0692 123.7 10.9151C122.495 10.3078 121.211 10.1013 119.874 10.1476C117.565 10.2246 115.721 11.211 114.317 13.0451C113.461 14.161 112.987 15.4371 112.828 16.8335C112.672 18.2052 112.724 19.5677 113.161 20.8839C113.892 23.0786 115.302 24.6692 117.449 25.5323C119.024 26.1642 120.654 26.1827 122.284 25.7388C123.572 25.3874 124.685 24.7339 125.597 23.7414C125.722 23.6057 125.786 23.467 125.786 23.2759C125.78 21.263 125.783 19.2471 125.783 17.2342C125.783 17.1448 125.768 17.0554 125.759 16.9784C125.422 16.9013 124.361 16.9105 124.107 16.9999C124.107 17.1109 124.107 17.2311 124.107 17.3513C124.107 19.0683 124.104 20.7822 124.11 22.4991C124.11 22.7241 124.058 22.8875 123.884 23.0324C123.547 23.3191 123.196 23.578 122.798 23.7722C122.165 24.0835 121.495 24.2438 120.801 24.3055C119.886 24.3856 118.984 24.3178 118.128 23.9633C116.415 23.2543 115.308 21.9782 114.767 20.2057C114.43 19.1084 114.403 17.9771 114.58 16.8489C114.858 15.0826 115.727 13.677 117.216 12.6968C118.483 11.8614 119.896 11.7073 121.361 11.9138C122.462 12.068 123.459 12.4903 124.37 13.1252C124.474 13.1992 124.584 13.2701 124.691 13.341Z" fill="#0D1623"/>
<path d="M57.1581 9.74066C57.3997 9.67593 59.8648 9.66976 60.1554 9.73758C60.1554 15.2429 60.1554 20.7513 60.1554 26.2844C59.1583 26.2844 58.1735 26.2844 57.1887 26.2844C57.1856 26.2813 57.1765 26.2752 57.1703 26.2659C57.1642 26.2597 57.152 26.2505 57.152 26.2412C57.1459 26.1919 57.1336 26.1395 57.1336 26.0902C57.1336 20.6681 57.1367 15.246 57.1367 9.82389C57.1367 9.79615 57.152 9.76532 57.1581 9.74066Z" fill="#0D1623"/>
<path d="M150.095 14.4538C151.064 14.4538 152.015 14.4538 153 14.4538C153.006 14.5894 153.018 14.7097 153.018 14.8268C153.018 16.9321 153.015 19.0375 153.025 21.1459C153.028 21.5127 153.064 21.8857 153.132 22.2464C153.303 23.1711 153.905 23.5626 154.783 23.6612C155.367 23.729 155.918 23.5934 156.426 23.2913C156.851 23.0386 157.236 22.7426 157.554 22.3573C157.698 22.1847 157.765 22.0028 157.765 21.7717C157.756 19.4721 157.759 17.1695 157.759 14.8669C157.759 14.7436 157.759 14.6203 157.759 14.5062C157.976 14.4199 160.16 14.3891 160.655 14.46C160.661 14.4661 160.671 14.4754 160.677 14.4816C160.683 14.4908 160.692 14.497 160.692 14.5062C160.698 14.5679 160.71 14.6295 160.71 14.6881C160.71 18.5597 160.707 22.4344 160.707 26.306C160.707 26.3337 160.692 26.3646 160.677 26.4139C159.719 26.4139 158.756 26.4139 157.771 26.4139C157.762 26.2043 157.753 26.0008 157.741 25.745C157.618 25.8159 157.53 25.8683 157.438 25.9238C156.135 26.6851 154.737 26.8948 153.278 26.568C151.872 26.2505 150.963 25.3381 150.455 23.9972C150.186 23.2882 150.07 22.5484 150.067 21.7932C150.058 19.432 150.061 17.0678 150.061 14.7066C150.067 14.6295 150.082 14.5494 150.095 14.4538ZM158.398 15.1443C158.398 15.32 158.398 15.4525 158.398 15.5851C158.398 17.712 158.395 19.8389 158.401 21.9628C158.401 22.1785 158.362 22.3727 158.221 22.533C157.979 22.8105 157.756 23.1095 157.481 23.3468C156.689 24.0342 155.789 24.4503 154.71 24.3332C153.603 24.213 152.762 23.6273 152.511 22.4406C152.425 22.0306 152.379 21.6083 152.376 21.1891C152.361 19.2995 152.37 17.4099 152.37 15.5204C152.37 15.4001 152.37 15.2799 152.37 15.1474C151.798 15.1474 151.266 15.1474 150.719 15.1474C150.709 15.2491 150.7 15.3292 150.7 15.4094C150.7 17.5363 150.697 19.6632 150.703 21.7871C150.706 22.345 150.783 22.8937 150.942 23.4269C151.361 24.8295 152.245 25.7481 153.713 25.9608C155.428 26.2074 156.949 25.782 158.163 24.4657C158.218 24.4041 158.288 24.3548 158.386 24.2716C158.42 24.7987 158.371 25.2672 158.417 25.7203C158.823 25.7974 159.848 25.7789 160.053 25.6987C160.117 25.1346 160.086 15.3631 160.019 15.1443C159.496 15.1443 158.97 15.1443 158.398 15.1443Z" fill="#0D1623"/>
<path d="M166.24 25.8159C166.222 26.2474 166.234 26.6543 166.231 27.0581C166.228 27.4804 166.231 27.8996 166.231 28.3219C166.231 28.7319 166.231 29.1449 166.231 29.5549C166.231 29.9618 166.231 30.3718 166.231 30.8002C165.24 30.8002 164.286 30.8002 163.338 30.8002C163.325 30.791 163.316 30.7848 163.31 30.7787C163.304 30.7725 163.295 30.7633 163.295 30.754C163.289 30.7139 163.276 30.6739 163.276 30.6338C163.276 25.2918 163.276 19.953 163.276 14.611C163.276 14.5709 163.289 14.5308 163.295 14.4969C163.518 14.423 165.842 14.4045 166.213 14.4784C166.225 14.6665 166.24 14.8607 166.255 15.098C166.375 15.0364 166.454 14.9994 166.528 14.9501C168.295 13.8003 171.516 13.6955 173.461 16.0628C174.424 17.2373 174.935 18.5782 174.993 20.0978C175.048 21.5189 174.77 22.8567 174.005 24.0681C173.207 25.3319 172.128 26.232 170.653 26.5618C169.194 26.8886 167.797 26.7159 166.5 25.9237C166.457 25.896 166.414 25.8683 166.368 25.8467C166.35 25.8374 166.329 25.8374 166.24 25.8159ZM163.934 30.1036C164.325 30.1745 165.359 30.1591 165.589 30.0759C165.589 29.1203 165.589 28.1555 165.589 27.1906C165.589 26.2197 165.589 25.2487 165.589 24.2777C165.61 24.2684 165.631 24.2592 165.653 24.2499C165.723 24.3301 165.79 24.4102 165.861 24.4935C166.359 25.0853 166.974 25.5107 167.705 25.7665C168.393 26.0039 169.097 26.0655 169.815 26.0101C170.996 25.9176 171.993 25.4336 172.8 24.5644C173.914 23.3684 174.379 21.9319 174.354 20.3136C174.333 18.8864 173.889 17.6226 172.984 16.5129C171.124 14.2318 167.43 14.3521 165.778 16.4944C165.738 16.5468 165.683 16.5869 165.582 16.6824C165.582 16.1307 165.582 15.6436 165.582 15.1658C165.197 15.0919 164.16 15.1104 163.937 15.1874C163.934 20.1533 163.934 25.1192 163.934 30.1036Z" fill="#0D1623"/>
<path d="M142.439 26.716C138.812 26.719 136.772 24.0034 136.408 21.5805C136.059 19.244 136.696 17.2342 138.445 15.619C139.112 15.0025 139.892 14.5925 140.769 14.3737C142.155 14.0284 143.534 14.0716 144.84 14.6573C146.74 15.5111 147.883 17.0246 148.305 19.0621C148.627 20.6157 148.471 22.1385 147.7 23.5441C146.752 25.2764 145.314 26.343 143.351 26.642C143.14 26.6728 142.926 26.6821 142.712 26.7006C142.598 26.7098 142.488 26.7129 142.439 26.716ZM147.816 20.3013C147.792 20.0732 147.782 19.6786 147.703 19.2964C147.324 17.4469 146.317 16.0752 144.602 15.283C143.751 14.8915 142.837 14.7898 141.91 14.8607C140.672 14.9563 139.58 15.4063 138.677 16.2941C137.277 17.675 136.775 19.3673 137.011 21.2939C137.307 23.7167 139.314 26.0378 142.326 26.0286C143.421 26.0255 144.458 25.8066 145.369 25.1747C147.006 24.0434 147.782 22.4467 147.816 20.3013Z" fill="#0D1623"/>
<path d="M131.839 26.4262C130.839 26.4262 129.885 26.4262 128.933 26.4262C128.872 26.1919 128.857 14.8237 128.915 14.4815C129.16 14.4168 131.524 14.4137 131.836 14.4877C131.836 14.7281 131.836 14.9778 131.836 15.3046C132.46 14.8823 133.053 14.5555 133.714 14.3675C134.377 14.1764 135.05 14.1455 135.754 14.1887C135.754 15.2244 135.754 16.2355 135.754 17.2866C135.543 17.2959 135.341 17.3051 135.142 17.3113C134.39 17.3267 133.695 17.5363 133.056 17.9309C132.631 18.1898 132.285 18.5319 132.01 18.9512C131.888 19.1392 131.836 19.3334 131.836 19.5584C131.842 21.7162 131.839 23.8708 131.839 26.0286C131.839 26.1519 131.839 26.2813 131.839 26.4262ZM129.524 15.1474C129.524 15.2892 129.524 15.4094 129.524 15.5296C129.524 17.0184 129.524 18.5073 129.524 19.9961C129.524 21.784 129.524 23.5687 129.524 25.3566C129.524 25.483 129.542 25.6124 129.551 25.7573C130.111 25.7635 130.634 25.7912 131.197 25.7388C131.197 25.5816 131.197 25.4491 131.197 25.3196C131.197 23.3684 131.203 21.4172 131.19 19.4659C131.187 19.1731 131.264 18.9265 131.411 18.683C132.093 17.5579 133.123 16.9599 134.377 16.7102C134.613 16.6639 134.854 16.6424 135.114 16.6054C135.13 16.0166 135.148 15.4494 135.102 14.8638C134.689 14.8299 134.316 14.8915 133.958 15.0056C133.6 15.1196 133.24 15.246 132.912 15.4279C132.576 15.6128 132.258 15.8471 131.97 16.106C131.698 16.3526 131.478 16.6547 131.194 16.9784C131.194 16.6239 131.2 16.328 131.194 16.032C131.187 15.7392 131.224 15.4433 131.169 15.1535C130.612 15.1474 130.086 15.1474 129.524 15.1474Z" fill="#0D1623"/>
<path d="M165.589 20.4492C165.589 19.956 165.579 19.4629 165.595 18.9727C165.598 18.8155 165.631 18.6429 165.702 18.5042C166.503 16.9229 168.402 15.9087 170.403 16.7163C171.305 17.0801 171.944 17.7613 172.311 18.6552C172.846 19.956 172.831 21.2723 172.158 22.5176C171.464 23.8061 170.36 24.4842 168.886 24.438C167.424 24.3918 166.368 23.6581 165.686 22.3696C165.622 22.2494 165.595 22.0984 165.592 21.9597C165.582 21.4541 165.589 20.9517 165.589 20.4492ZM166.231 20.4308C166.231 20.8716 166.237 21.3154 166.228 21.7562C166.222 21.972 166.28 22.1569 166.402 22.3327C167.023 23.2358 167.852 23.7475 168.965 23.7568C170.029 23.766 170.874 23.3375 171.445 22.4405C172.222 21.223 172.247 19.9376 171.595 18.6614C171.216 17.9216 170.604 17.4161 169.782 17.2095C168.448 16.8736 167.099 17.4284 166.368 18.609C166.274 18.7631 166.225 18.9203 166.228 19.1022C166.237 19.5461 166.231 19.99 166.231 20.4308Z" fill="#0D1623"/>
<path d="M138.656 20.4554C138.647 19.3025 139.008 18.3162 139.8 17.5055C140.433 16.855 141.204 16.5098 142.106 16.4451C144.366 16.2817 145.831 18.0017 146.064 19.7618C146.213 20.9147 146.027 21.9905 145.336 22.9522C143.956 24.8695 141.277 24.8202 139.91 23.4978C139.045 22.6594 138.638 21.636 138.656 20.4554ZM142.384 23.7568C143.485 23.7568 144.351 23.3221 144.932 22.382C145.657 21.2075 145.69 19.9499 145.063 18.7385C143.95 16.59 141.14 16.6793 139.971 18.3007C139.231 19.3303 139.103 20.4554 139.476 21.6391C139.892 22.9584 141.017 23.7568 142.384 23.7568Z" fill="#0D1623"/>
</g>
<defs>
<clipPath id="clip0">
<rect width="36" height="36" fill="white"/>
</clipPath>
</defs>
</svg>
