<?xml version="1.0" encoding="utf-8"?><svg xmlns="http://www.w3.org/2000/svg" xmlns:xlink="http://www.w3.org/1999/xlink"><symbol viewBox="0 0 40 40" id="icon-arrow-down" xmlns="http://www.w3.org/2000/svg"><path d="M18.333 6.667h3.334v20l9.166-9.167 2.367 2.367-13.2 13.2-13.2-13.2L9.166 17.5l9.167 9.167v-20z"/></symbol><symbol viewBox="0 0 40 40" id="icon-arrow-left" xmlns="http://www.w3.org/2000/svg"><path d="M33.334 18.333v3.334h-20l9.166 9.166-2.366 2.367L6.934 20l13.2-13.2L22.5 9.166l-9.166 9.167h20z"/></symbol><symbol viewBox="0 0 40 40" id="icon-arrow-right" xmlns="http://www.w3.org/2000/svg"><path d="M6.667 18.333v3.334h20L17.5 30.832l2.366 2.367 13.2-13.2-13.2-13.2L17.5 9.166l9.166 9.167h-20z"/></symbol><symbol viewBox="0 0 40 40" id="icon-arrow-up" xmlns="http://www.w3.org/2000/svg"><path d="M21.666 33.334h-3.333v-20L9.166 22.5 6.8 20.134 20 6.934l13.2 13.2-2.367 2.366-9.166-9.166v20z"/></symbol><symbol viewBox="0 0 16 16" id="icon-astronim" xmlns="http://www.w3.org/2000/svg"><path d="M6.184 3.59c.571-1.76 3.06-1.76 3.632 0a1.91 1.91 0 001.817 1.32c1.85 0 2.619 2.367 1.122 3.455a1.91 1.91 0 00-.694 2.135c.572 1.76-1.442 3.223-2.938 2.135a1.91 1.91 0 00-2.246 0c-1.496 1.088-3.51-.376-2.938-2.135a1.91 1.91 0 00-.694-2.135C1.748 7.277 2.517 4.91 4.367 4.91a1.91 1.91 0 001.817-1.32z"/></symbol><symbol viewBox="0 0 40 40" id="icon-chevron-down" xmlns="http://www.w3.org/2000/svg"><path d="M12.35 14.3L20 21.95l7.65-7.65L30 16.666l-10 10-10-10 2.35-2.366z"/></symbol><symbol viewBox="0 0 32 32" id="icon-chevron-down-drop" xmlns="http://www.w3.org/2000/svg"><path d="M9.88 14.106l6.12 6.12 6.12-6.12L24 16l-8 8-8-8 1.88-1.894z"/></symbol><symbol viewBox="0 0 40 40" id="icon-chevron-left" xmlns="http://www.w3.org/2000/svg"><path d="M25.683 27.633L18.05 20l7.633-7.65-2.35-2.35-10 10 10 10 2.35-2.367z"/></symbol><symbol viewBox="0 0 40 40" id="icon-chevron-right" xmlns="http://www.w3.org/2000/svg"><path d="M14.316 27.633L21.95 20l-7.634-7.65 2.35-2.35 10 10-10 10-2.35-2.367z"/></symbol><symbol viewBox="0 0 40 40" id="icon-chevron-up" xmlns="http://www.w3.org/2000/svg"><path d="M12.35 25.683L20 18.05l7.65 7.633 2.35-2.35-10-10-10 10 2.35 2.35z"/></symbol><symbol viewBox="0 0 40 40" id="icon-home" xmlns="http://www.w3.org/2000/svg"><path d="M16.667 33.333v-10h6.666v10h8.334V20h5L20 5 3.334 20h5v13.333h8.333z"/></symbol><symbol viewBox="0 0 40 40" id="icon-search" xmlns="http://www.w3.org/2000/svg"><path d="M25.833 23.333h-1.316l-.467-.45a10.785 10.785 0 002.617-7.05 10.834 10.834 0 10-10.834 10.834c2.684 0 5.15-.984 7.05-2.617l.45.467v1.316l8.334 8.334 2.5-2.5-8.334-8.334zm-10 0a7.469 7.469 0 01-7.5-7.5 7.47 7.47 0 017.5-7.5c4.167 0 7.5 3.334 7.5 7.5 0 4.167-3.333 7.5-7.5 7.5z"/></symbol><symbol viewBox="0 0 40 40" id="icon-shevron-double-down" xmlns="http://www.w3.org/2000/svg"><path d="M27.65 9.316l2.35 2.35-10 10-10-10 2.35-2.35L20 16.95l7.65-7.634zm0 10l2.35 2.35-10 10-10-10 2.35-2.35L20 26.95l7.65-7.634z"/></symbol><symbol viewBox="0 0 40 40" id="icon-sorting" xmlns="http://www.w3.org/2000/svg"><path d="M20 30.283L14.717 25l-2.35 2.35L20 35l7.65-7.65L25.283 25 20 30.283zm0-20.566L25.283 15l2.35-2.35L20 5l-7.65 7.65L14.717 15 20 9.717z"/></symbol></svg>